<?xml version="1.0" encoding="UTF-8"?>
<svg width="64px" height="64px" viewBox="0 0 64 64" version="1.1" xmlns="http://www.w3.org/2000/svg" xmlns:xlink="http://www.w3.org/1999/xlink">
    <title>0xgen-blue</title>
    <defs>
        <linearGradient x1="32.3215886%" y1="43.1334657%" x2="85.8093549%" y2="61.0426913%" id="linearGradient-1">
            <stop stop-color="#FFFFFF" stop-opacity="0" offset="0%"></stop>
            <stop stop-color="#FFFFFF" offset="100%"></stop>
        </linearGradient>
    </defs>
    <g id="logo" stroke="none" stroke-width="1" fill="none" fill-rule="evenodd">
        <g id="0xgen-blue">
            <path d="M32,64 C49.73344,64 64,49.73344 64,32 C64,14.26656 49.73344,0 32,0 C14.26656,0 0,14.26656 0,32 C0,49.73344 14.26656,64 32,64 Z" id="Path" fill="#476FFE" fill-rule="nonzero"></path>
            <path d="M54.9274626,32.4144615 C54.7088112,44.789939 44.7174139,54.7813364 32.3419363,54.9999878 L32.3425204,45.3061177 C39.3649176,45.0910602 45.018535,39.4374428 45.2335925,32.4150456 L54.9274626,32.4144615 Z M8.92748703,32.4144615 L18.6213571,32.4150456 C18.8271507,39.1349413 24.0130459,44.6014423 30.61287,45.2483758 L30.6126694,54.9667012 C18.6563976,54.2929795 9.14081032,44.4883731 8.92748703,32.4144615 Z M30.6126694,9.03329881 L30.61287,18.7516242 C24.3101422,19.3694354 19.2969103,24.3826674 18.679099,30.6853951 L8.96077362,30.6851946 C9.61766805,19.0275505 18.9550253,9.69019323 30.6126694,9.03329881 Z M32.3419363,9.00001222 C42.8202817,9.18514486 51.5894685,16.3764059 54.1645402,26.0888388 L43.8587199,26.0885157 C41.7391607,21.8187858 37.3951357,18.8486162 32.3425204,18.6938823 L32.3419363,9.00001222 Z" fill="#FFFFFF"></path>
            <path d="M40.5614758,30.3365679 L55.0556402,30.3365679 C55.1034593,31.8409351 55.0496353,33.1550718 54.8941681,34.2789778 C54.7387009,35.4028839 54.5057256,36.5606291 54.195242,37.7522136 L33.9874191,37.7522136 L40.5614758,30.3365679 Z" fill="#FFFFFF"></path>
            <polygon fill="url(#linearGradient-1)" points="30.7231049 30.3365679 38.422622 30.3365679 31.8084707 37.7522136 24.1089536 37.7522136"></polygon>
        </g>
    </g>
</svg>